<svg width="760" height="760" viewBox="0 0 760 760" fill="none" xmlns="http://www.w3.org/2000/svg">
  <rect width="760" height="760" rx="96" fill="#FAF8FB"/>
  <ellipse cx="385" cy="648" rx="152" ry="26" fill="#F1E5F0"/>

  <path d="M279 591H470V403H279V591Z" fill="#1D7BFF"/>
  <path d="M279 591L250 623H500L470 591H279Z" fill="#EEE2F1"/>

  <path d="M286 401L247 319L235 252L260 196L305 171L338 195L331 268L316 340L286 401Z" fill="#FFD43A"/>
  <path d="M470 403L510 329L529 257L503 192L456 166L420 189L429 267L445 344L470 403Z" fill="#4723A8"/>
  <path d="M286 401L470 403L442 349L321 344L286 401Z" fill="#FF0A6C"/>

  <path d="M250 276L214 225L224 187L266 164L294 187L289 246L268 281L250 276Z" fill="#FFB325"/>
  <path d="M297 241L274 188L286 149L330 131L360 156L351 215L323 248L297 241Z" fill="#FFE03D"/>
  <path d="M357 228L343 172L360 137L405 120L439 146L429 205L395 238L357 228Z" fill="#FFD34B"/>
  <path d="M423 242L427 185L457 149L500 149L525 184L512 234L471 255L423 242Z" fill="#5432C0"/>

  <path d="M240 300L288 256L344 266L371 316L360 381L313 408L259 376L240 300Z" fill="#FF7118"/>
  <path d="M360 381L371 316L428 279L485 295L503 367L458 407L393 412L360 381Z" fill="#D90070"/>
  <path d="M327 345L386 345L423 304L392 263L338 270L306 305L327 345Z" fill="#FF458A"/>

  <path d="M286 401L247 319L295 304L321 344L286 401Z" fill="#FFA221"/>
  <path d="M470 403L510 329L423 304L442 349L470 403Z" fill="#5F2CCA"/>
  <path d="M279 591V401L321 344L372 469L372 591H279Z" fill="#FFB000"/>
  <path d="M372 591V469L442 349L470 403V591H372Z" fill="#255BFF"/>
  <path d="M372 469L321 344L286 401L372 591L470 403L442 349L372 469Z" fill="#18D9A7"/>

  <path d="M251 376L278 335L321 344L309 404L251 376Z" fill="#FF9B1E"/>
  <path d="M393 412L442 349L458 407L393 412Z" fill="#7C23D0"/>
  <path d="M321 344L358 316L442 349L372 469L321 344Z" fill="#FF1E78"/>

  <path d="M289 591L279 591L279 401L289 402V591Z" fill="#FF9319"/>
  <path d="M470 590L452 590L452 408L470 403V590Z" fill="#2936C9"/>

  <path d="M279 590L232 545L255 499L279 536V590Z" fill="#FF7A00"/>
  <path d="M279 536L255 499L290 454L323 503L279 536Z" fill="#FFB400"/>
  <path d="M323 503L290 454L340 427L372 469L323 503Z" fill="#F26FD0"/>
  <path d="M372 469L340 427L392 407L405 505L372 469Z" fill="#9560F8"/>
  <path d="M405 505L392 407L452 441L430 548L405 505Z" fill="#11D5B6"/>
  <path d="M430 548L452 441L470 403L470 590L430 548Z" fill="#1AB0FF"/>
  <path d="M323 503L372 469L405 505L350 544L323 503Z" fill="#D13CF8"/>
  <path d="M350 544L405 505L430 548L382 590L350 544Z" fill="#2C83FF"/>
  <path d="M279 590L323 503L350 544L318 613L279 590Z" fill="#FFAE00"/>
  <path d="M318 613L350 544L382 590L359 623L318 613Z" fill="#00D889"/>

  <path d="M226 235L252 210L286 220L274 253L226 235Z" fill="#FF6F1A" opacity="0.92"/>
  <path d="M270 173L312 158L323 198L286 220L270 173Z" fill="#FFC937" opacity="0.92"/>
  <path d="M349 140L395 123L405 170L360 184L349 140Z" fill="#FFF082" opacity="0.84"/>
  <path d="M421 170L468 148L488 193L442 214L421 170Z" fill="#7A5BFF" opacity="0.88"/>
  <path d="M454 225L496 208L505 241L471 255L454 225Z" fill="#2E1E8F" opacity="0.9"/>

  <path d="M288 257L311 235L336 242L327 273L288 257Z" fill="#7B1E8D"/>
  <path d="M365 240L392 220L417 232L405 258L365 240Z" fill="#FF5B31"/>

  <circle cx="309" cy="188" r="7" fill="#FFF9DD"/>
  <circle cx="379" cy="176" r="7" fill="#FFF9DD"/>
  <circle cx="469" cy="181" r="8" fill="#F2E8FF"/>
  <circle cx="265" cy="237" r="9" fill="#92215F"/>
  <circle cx="433" cy="242" r="10" fill="#FFF7FF"/>

  <path d="M247 319L360 381L503 367" stroke="#A40D56" stroke-width="6" stroke-linecap="round" opacity="0.28"/>
  <path d="M305 171L442 349" stroke="#FF8B2A" stroke-width="5" stroke-linecap="round" opacity="0.18"/>
  <path d="M456 166L372 469" stroke="#1F54F5" stroke-width="5" stroke-linecap="round" opacity="0.18"/>
</svg>
